<svg width="0" height="0" class="hidden">
  <symbol fill="none" xmlns="http://www.w3.org/2000/svg" viewBox="0 0 25 25" id="location-icon">
    <path d="M11.8746 22.0562L11.8738 22.055L11.8723 22.0524L6.46462 12.5238C5.28077 10.4378 5.31399 7.96878 6.55591 5.90558C7.77106 3.88688 9.93066 2.64893 12.3441 2.60154C12.4478 2.59949 12.5523 2.5995 12.656 2.60155C15.0695 2.64894 17.229 3.88688 18.4441 5.90557C19.686 7.96878 19.7192 10.4378 18.5354 12.5238L13.1277 22.0524L13.1262 22.055L13.1255 22.0562M11.8746 22.0562C12.0008 22.2674 12.2282 22.4 12.5001 22.4C12.7719 22.4 12.9993 22.2673 13.1255 22.0562M11.8746 22.0562H13.1255M8.83238 8.56251C8.83238 10.5436 10.4988 12.1156 12.5 12.1156C14.5012 12.1156 16.1676 10.5435 16.1676 8.56251C16.1676 6.58148 14.5011 5.00939 12.5 5.00939C10.4988 5.00939 8.83238 6.58148 8.83238 8.56251Z" stroke="#015989" stroke-width="1.2"></path>
  </symbol>
  <symbol fill="none" xmlns="http://www.w3.org/2000/svg" viewBox="0 0 25 25" id="breifcase-icon">
    <path d="M21.4468 6.03087C21.4457 6.03087 21.4445 6.03072 21.4434 6.03072H16.3965V5.4426C16.3965 4.46976 15.6473 3.67825 14.7266 3.67825H10.2734C9.35266 3.67825 8.60352 4.46976 8.60352 5.4426V6.03072H3.55664C3.24672 6.03072 3 6.29905 3 6.61884V19.5574C3 20.5302 3.74915 21.3217 4.66992 21.3217H20.3301C21.2509 21.3217 22 20.5302 22 19.5574V6.63124C22 6.63048 22 6.62971 22 6.62894C21.9787 6.24269 21.7539 6.03302 21.4468 6.03087ZM9.7168 5.4426C9.7168 5.11837 9.96656 4.85449 10.2734 4.85449H14.7266C15.0334 4.85449 15.2832 5.11837 15.2832 5.4426V6.03072H9.7168V5.4426ZM20.671 7.20695L18.9424 12.6859C18.8666 12.9265 18.6544 13.0881 18.4145 13.0881H15.2832V12.5C15.2832 12.1752 15.034 11.9119 14.7266 11.9119H10.2734C9.96598 11.9119 9.7168 12.1752 9.7168 12.5V13.0881H6.58555C6.34564 13.0881 6.13342 12.9265 6.05761 12.6859L4.32898 7.20695H20.671ZM14.1699 13.0881V14.2643H10.8301V13.0881H14.1699ZM20.8867 19.5574C20.8867 19.8816 20.637 20.1455 20.3301 20.1455H4.66992C4.36304 20.1455 4.11328 19.8816 4.11328 19.5574V10.2429L5.00144 13.0579C5.22903 13.7796 5.86568 14.2643 6.58555 14.2643H9.7168V14.8525C9.7168 15.1773 9.96598 15.4406 10.2734 15.4406H14.7266C15.034 15.4406 15.2832 15.1773 15.2832 14.8525V14.2643H18.4145C19.1343 14.2643 19.771 13.7796 19.9986 13.0579L20.8867 10.2429V19.5574Z" fill="#015989"></path>
  </symbol>
  <symbol fill="none" xmlns="http://www.w3.org/2000/svg" viewBox="0 0 20 20" id="caret-down-icon">
    <path fill-rule="evenodd" clip-rule="evenodd" d="M5 8L10 13L15 8H5Z" fill="#5C5F62"></path>
  </symbol>
  <symbol fill="none" xmlns="http://www.w3.org/2000/svg" viewBox="0 0 25 25" id="company-icon">
    <path d="M20.9387 20.2212H20.2212V12.3281C20.2211 12.1847 20.1781 12.0446 20.0978 11.9259C20.0174 11.8071 19.9033 11.7151 19.7702 11.6617L12.5948 8.79155C12.418 8.72083 12.2204 8.72322 12.0455 8.79818C11.8705 8.87315 11.7325 9.01455 11.6617 9.19129C11.591 9.36803 11.5934 9.56562 11.6684 9.7406C11.7433 9.91557 11.8847 10.0536 12.0615 10.1243L18.7861 12.814V14.4808H13.7632C13.5729 14.4808 13.3904 14.5564 13.2558 14.6909C13.1213 14.8255 13.0457 15.008 13.0457 15.1983C13.0457 15.3886 13.1213 15.5711 13.2558 15.7057C13.3904 15.8403 13.5729 15.9159 13.7632 15.9159H18.7861V17.351H13.7632C13.5729 17.351 13.3904 17.4266 13.2558 17.5611C13.1213 17.6957 13.0457 17.8782 13.0457 18.0685C13.0457 18.2588 13.1213 18.4413 13.2558 18.5759C13.3904 18.7105 13.5729 18.7861 13.7632 18.7861H18.7861V20.2212H11.5532L10.173 3.65799C10.1581 3.47861 10.0763 3.3114 9.94383 3.18952C9.81137 3.06764 9.63793 2.99999 9.45793 3H6.58774C6.40774 2.99999 6.23431 3.06764 6.10185 3.18952C5.96939 3.3114 5.88757 3.47861 5.87263 3.65799L4.4925 20.2212H3.71755C3.52724 20.2212 3.34473 20.2968 3.21016 20.4313C3.0756 20.5659 3 20.7484 3 20.9387C3 21.129 3.0756 21.3115 3.21016 21.4461C3.34473 21.5807 3.52724 21.6562 3.71755 21.6562H20.9387C21.129 21.6562 21.3115 21.5807 21.4461 21.4461C21.5807 21.3115 21.6562 21.129 21.6562 20.9387C21.6562 20.7484 21.5807 20.5659 21.4461 20.4313C21.3115 20.2968 21.129 20.2212 20.9387 20.2212ZM8.79779 4.4351L9.03695 7.30529H7.00865L7.24788 4.4351H8.79779ZM6.88911 8.74038H9.15656L10.1132 20.2212H5.93248L6.88911 8.74038Z" fill="#015989"></path>
  </symbol>
  <symbol fill="none" xmlns="http://www.w3.org/2000/svg" viewBox="0 0 25 25" id="email-icon">
    <path d="M12.3579 13.1963L12.3567 13.1952C11.1052 12.0679 6.94012 8.52975 4.44786 6.4186C4.60569 6.29257 4.79834 6.225 5.00003 6.225H20C20.2017 6.225 20.3944 6.29257 20.5522 6.4186C18.0599 8.52979 13.8947 12.0683 12.6422 13.1967L12.6416 13.1972C12.5573 13.2734 12.5121 13.2746 12.5 13.2746C12.4888 13.2746 12.4433 13.2737 12.3579 13.1963ZM4.2953 6.57298L4.29531 6.57297L4.2953 6.57298Z" stroke="#015989" stroke-width="1.2"></path>
    <path d="M12.0683 13.2917L12.4792 13.7174L12.9107 13.3125L12.5 12.875L12.9107 13.3124L12.9107 13.3124L12.9109 13.3123L12.9112 13.3119L12.9124 13.3109L12.9163 13.3072L12.9307 13.2935L12.9849 13.2418C13.0321 13.1965 13.1009 13.1299 13.1891 13.0432C13.3654 12.8698 13.6193 12.616 13.9321 12.2913C15.056 11.1247 18.0696 8.59853 20.5214 6.62695C20.6394 6.70996 20.7889 6.81415 20.9 6.8848V17.6502C20.9 18.3515 20.42 18.775 20 18.775H5.00001C4.58001 18.775 4.1 18.3515 4.1 17.6502V6.95104C4.18819 6.94112 4.29198 6.93256 4.39707 6.92719C4.52295 6.92075 4.63715 6.9196 4.72081 6.92369L4.88882 7.06437C5.06386 7.21104 5.3153 7.42198 5.62071 7.67892C6.23161 8.19286 7.05814 8.8906 7.92107 9.62608C9.66203 11.1099 11.5077 12.7109 12.0683 13.2917ZM5 6.375L4.61553 6.83541C4.61551 6.83539 4.61549 6.83538 4.61547 6.83536L5 6.375Z" stroke="#015989" stroke-width="1.2"></path>
  </symbol>
  <symbol fill="none" xmlns="http://www.w3.org/2000/svg" viewBox="0 0 25 25" id="phone-icon">
    <path d="M21.4579 16.6395C21.4081 16.4516 21.3196 16.2762 21.198 16.1247C21.0763 15.9732 20.9242 15.8488 20.7516 15.7598L17.1264 13.8801C16.8339 13.7249 16.4954 13.6801 16.1726 13.7538C15.8498 13.8276 15.5642 14.015 15.368 14.2818L14.7819 15.0853C14.7518 15.1271 14.7075 15.1564 14.6573 15.1677C14.6071 15.179 14.5545 15.1716 14.5094 15.1469C13.6474 14.6561 12.8583 14.0471 12.1649 13.3376C11.4558 12.6437 10.8472 11.8541 10.3567 10.9916C10.3319 10.9465 10.3245 10.8939 10.3359 10.8436C10.3472 10.7934 10.3765 10.7491 10.4182 10.7189L11.2183 10.1324C11.485 9.93611 11.6722 9.65039 11.7459 9.32741C11.8196 9.00443 11.7749 8.6657 11.6198 8.37299L9.75296 4.74852C9.66331 4.57553 9.53823 4.42338 9.38589 4.30199C9.23354 4.1806 9.05734 4.09269 8.86877 4.044C8.6802 3.99531 8.48349 3.98692 8.29146 4.01938C8.09943 4.05185 7.91639 4.12444 7.75428 4.23242L5.47719 5.75727C5.15744 5.9703 4.89926 6.26366 4.7285 6.60797C4.55774 6.95227 4.4804 7.33543 4.50422 7.71906C4.53436 8.36769 4.62164 9.01239 4.76505 9.64567C5.38341 12.0327 6.87509 14.4871 8.94704 16.5632C11.019 18.6394 13.4748 20.1261 15.8604 20.739C16.4933 20.8825 17.1376 20.9698 17.7858 21H17.9323C18.29 20.9992 18.642 20.9109 18.9577 20.7427C19.2733 20.5746 19.5431 20.3317 19.7434 20.0352L21.2615 17.7567C21.3711 17.5949 21.4452 17.4117 21.479 17.2191C21.5129 17.0266 21.5057 16.829 21.4579 16.6395ZM20.2856 17.1028L18.7763 19.3842C18.6762 19.5322 18.5391 19.6514 18.3787 19.7301C18.2184 19.8088 18.0402 19.8442 17.862 19.8329C17.2871 19.8063 16.7155 19.7308 16.1534 19.6071C13.9672 19.0382 11.7048 17.6629 9.77934 15.7275C7.85392 13.7921 6.4736 11.5371 5.90506 9.34949C5.78042 8.78716 5.70395 8.21522 5.67647 7.63989C5.66476 7.46189 5.70002 7.28393 5.77872 7.12387C5.85741 6.9638 5.97678 6.82725 6.12485 6.72791L8.40195 5.20891C8.43661 5.18569 8.47745 5.17343 8.51917 5.17372H8.57485C8.60371 5.18125 8.63064 5.19481 8.65388 5.21351C8.67712 5.23221 8.69613 5.25563 8.70966 5.28222L10.5853 8.90963C10.6086 8.95461 10.6152 9.00641 10.6039 9.05581C10.5926 9.10521 10.5642 9.149 10.5237 9.17941L9.72365 9.76589C9.45236 9.96786 9.26439 10.2623 9.19527 10.5935C9.12615 10.9247 9.18068 11.2697 9.34854 11.5635C9.89096 12.5122 10.5616 13.3815 11.3414 14.1469C12.1062 14.9273 12.975 15.5983 13.9232 16.141C14.2168 16.3089 14.5616 16.3635 14.8926 16.2943C15.2236 16.2252 15.5179 16.0371 15.7197 15.7656L16.3058 14.9621C16.3362 14.9216 16.38 14.8932 16.4294 14.8819C16.4787 14.8706 16.5305 14.8772 16.5754 14.9006L20.2006 16.7773C20.2272 16.7912 20.2505 16.8105 20.2691 16.834C20.2877 16.8575 20.3012 16.8846 20.3086 16.9137C20.3161 16.9427 20.3174 16.973 20.3124 17.0025C20.3074 17.0321 20.2963 17.0602 20.2797 17.0852L20.2856 17.1028Z" fill="#015989"></path>
  </symbol>
  <symbol fill="none" xmlns="http://www.w3.org/2000/svg" viewBox="0 0 16 16" id="search-icon">
    <path fill-rule="evenodd" clip-rule="evenodd" d="M6 10C3.791 10 2 8.209 2 6C2 3.791 3.791 2 6 2C8.209 2 10 3.791 10 6C10 8.209 8.209 10 6 10ZM15.707 14.293L10.887 9.473C11.585 8.492 12 7.296 12 6C12 2.687 9.313 0 6 0C2.687 0 0 2.687 0 6C0 9.313 2.687 12 6 12C7.296 12 8.492 11.585 9.473 10.887L14.293 15.707C14.488 15.902 14.744 16 15 16C15.256 16 15.512 15.902 15.707 15.707C16.098 15.316 16.098 14.684 15.707 14.293Z" fill="#202223"></path>
  </symbol>
  <symbol fill="none" xmlns="http://www.w3.org/2000/svg" viewBox="0 0 25 25" id="web-icon">
    <path d="M6.35151 7.15126L6.34036 7.16824C5.32347 8.34147 4.66289 9.78094 4.43679 11.3173C4.20895 12.8654 4.43196 14.4464 5.07916 15.8713C5.72636 17.2961 6.77036 18.5045 8.08634 19.3519C9.40232 20.1993 10.9346 20.65 12.5 20.65C14.0654 20.65 15.5977 20.1993 16.9137 19.3519C18.2296 18.5045 19.2736 17.2961 19.9208 15.8713C20.568 14.4464 20.791 12.8654 20.5632 11.3173C20.3354 9.76909 19.6663 8.31927 18.636 7.14112L18.6166 7.11889L18.6147 7.11793C18.5992 7.09912 18.582 7.08175 18.5633 7.06605C17.8016 6.21323 16.8685 5.53051 15.825 5.0625C14.7777 4.59282 13.6428 4.35 12.495 4.35C11.3472 4.35 10.2123 4.59282 9.16505 5.0625C8.1213 5.53059 7.18809 6.21347 6.42631 7.0665C6.39751 7.09105 6.37232 7.11959 6.35151 7.15126ZM17.2243 12.899H19.8341C19.7525 14.4294 19.1917 15.8958 18.2308 17.0906C17.7292 16.8073 17.2018 16.5722 16.6558 16.3887C17.0054 15.2572 17.1967 14.0829 17.2243 12.899ZM16.3908 17.1438C16.8364 17.2931 17.2686 17.4795 17.683 17.7011C16.9265 18.4557 16.0157 19.035 15.0153 19.4007C15.5584 18.8114 16.0278 18.0436 16.3908 17.1438ZM6.76367 17.0914C5.80232 15.8965 5.2413 14.4298 5.15966 12.899H7.76947C7.79695 14.0833 7.98825 15.2581 8.33794 16.3899C7.79217 16.5734 7.26504 16.8083 6.76367 17.0914ZM5.15975 12.0992C5.24265 10.5598 5.8104 9.08548 6.78212 7.88762C7.28057 8.16801 7.8043 8.40089 8.34636 8.58319C7.99133 9.72265 7.79716 10.9061 7.76947 12.0992H5.15975ZM12.8969 12.0992V9.22749C13.9095 9.2019 14.9159 9.06092 15.8965 8.80727C16.2238 9.87511 16.403 10.9827 16.4293 12.0992H12.8969ZM12.8969 8.42741V5.19137C13.9778 5.39975 14.9577 6.45015 15.6191 8.05213C14.7282 8.27658 13.8153 8.40244 12.8969 8.42741ZM12.0969 5.19137V8.42741C11.1784 8.40245 10.2656 8.27659 9.37469 8.05213C10.036 6.45015 11.0159 5.39975 12.0969 5.19137ZM9.0974 8.80732C10.078 9.06092 11.0843 9.20189 12.0969 9.22749V12.0992H8.56929C8.59406 10.983 8.77174 9.87536 9.0974 8.80732ZM9.09739 16.1658C8.77435 15.1058 8.59682 14.0068 8.56965 12.899H12.0969V15.7434C11.0842 15.7697 10.0779 15.9114 9.09739 16.1658ZM12.0969 16.5433V19.8068C11.0104 19.5968 10.0214 18.5365 9.36381 16.9212C10.2581 16.695 11.1747 16.5683 12.0969 16.5433ZM12.8969 19.8068V16.5433C13.8191 16.5683 14.7356 16.695 15.6299 16.9212C14.9724 18.5365 13.9834 19.5968 12.8969 19.8068ZM15.8963 16.1646C14.9158 15.9106 13.9095 15.7692 12.8969 15.7433V12.899H16.4241C16.3968 14.0064 16.2193 15.105 15.8963 16.1646ZM19.834 12.0992H17.2243C17.1966 10.9061 17.0024 9.72265 16.6474 8.58319C17.1895 8.40088 17.7132 8.16801 18.2116 7.88762C19.1834 9.08548 19.7511 10.5598 19.834 12.0992ZM16.378 7.82976C16.0174 6.94193 15.554 6.18151 15.0145 5.59773C16.0061 5.96075 16.9096 6.53382 17.662 7.27952C17.25 7.49807 16.8205 7.68212 16.378 7.82976ZM8.6169 7.82974C8.17444 7.6821 7.74501 7.49806 7.33303 7.27951C8.08446 6.53459 8.98671 5.96189 9.97697 5.59872C9.43862 6.18131 8.97687 6.94247 8.6169 7.82974ZM8.60542 17.1438C8.96716 18.0414 9.43255 18.8117 9.97579 19.3997C8.97732 19.0337 8.06836 18.4547 7.31323 17.7011C7.72759 17.4796 8.15983 17.2931 8.60542 17.1438Z" fill="#015989" stroke="#015989" stroke-width="0.3"></path>
  </symbol>
</svg>